<svg aria-hidden="true" style="position:absolute;width:0;height:0;overflow:hidden" xmlns="http://www.w3.org/2000/svg">
  <defs>
    <symbol id="icon-favicon" viewBox="0 0 36 32">
      <path d="M15.786 11.416H14.66v-1.142h1.126v1.142zM14.66 11.416h-1.126v-1.142h1.126v1.142zM9.03 11.416H7.904v-1.142H9.03v1.142zM7.904 11.416H6.778v-1.142h1.126v1.142z"/>
      <path d="M6.778 11.416H5.652v-1.142h1.126v1.142zM29.298 10.274h-1.126V9.132h1.126v1.142z"/>
      <path d="M28.172 10.274h-1.126V9.132h1.126v1.142zM20.29 10.274h-1.126V9.132h1.126v1.142z"/>
      <path d="M19.164 10.274h-1.126V9.132h1.126v1.142zM16.912 10.274h-1.126V9.132h1.126v1.142zM15.786 10.274H14.66V9.132h1.126v1.142zM7.904 10.274H6.778V9.132h1.126v1.142z"/>
      <path d="M6.778 10.274H5.652V9.132h1.126v1.142zM29.298 9.133h-1.126V7.991h1.126v1.142zM19.164 9.133h-1.126V7.991h1.126v1.142zM16.912 9.133h-1.126V7.991h1.126v1.142z"/>
      <path d="M6.778 9.133H5.652V7.991h1.126v1.142zM34.928 7.991h-1.126V6.849h1.126v1.142zM1.148 7.991H.022V6.849h1.126v1.142zM34.928 6.849h-1.126V5.707h1.126v1.142zM33.802 6.849h-1.126V5.707h1.126v1.142zM23.668 6.849h-1.126V5.707h1.126v1.142z"/>
      <path d="M22.542 6.849h-1.126V5.707h1.126v1.142zM21.416 6.849H20.29V5.707h1.126v1.142zM14.66 6.849h-1.126V5.707h1.126v1.142zM13.534 6.849h-1.126V5.707h1.126v1.142zM12.408 6.849h-1.126V5.707h1.126v1.142zM2.274 6.849H1.148V5.707h1.126v1.142zM1.148 6.849H.022V5.707h1.126v1.142zM34.928 5.708h-1.126V4.566h1.126v1.142zM33.802 5.708h-1.126V4.566h1.126v1.142zM32.676 5.708H31.55V4.566h1.126v1.142zM24.794 5.708h-1.126V4.566h1.126v1.142z"/>
      <path d="M23.668 5.708h-1.126V4.566h1.126v1.142z"/>
      <path d="M22.542 5.708h-1.126V4.566h1.126v1.142zM19.164 5.708h-1.126V4.566h1.126v1.142zM16.912 5.708h-1.126V4.566h1.126v1.142zM13.534 5.708h-1.126V4.566h1.126v1.142zM12.408 5.708h-1.126V4.566h1.126v1.142zM11.282 5.708h-1.126V4.566h1.126v1.142zM3.4 5.708H2.274V4.566H3.4v1.142zM2.274 5.708H1.148V4.566h1.126v1.142zM1.148 5.708H.022V4.566h1.126v1.142zM33.802 4.566h-1.126V3.424h1.126v1.142zM32.676 4.566H31.55V3.424h1.126v1.142zM31.55 4.566h-1.126V3.424h1.126v1.142zM25.92 4.566h-1.126V3.424h1.126v1.142zM24.794 4.566h-1.126V3.424h1.126v1.142zM23.668 4.566h-1.126V3.424h1.126v1.142zM20.29 4.566h-1.126V3.424h1.126v1.142z"/>
      <path d="M19.164 4.566h-1.126V3.424h1.126v1.142zM16.912 4.566h-1.126V3.424h1.126v1.142zM15.786 4.566H14.66V3.424h1.126v1.142zM12.408 4.566h-1.126V3.424h1.126v1.142zM11.282 4.566h-1.126V3.424h1.126v1.142zM10.156 4.566H9.03V3.424h1.126v1.142zM4.526 4.566H3.4V3.424h1.126v1.142zM3.4 4.566H2.274V3.424H3.4v1.142zM2.274 4.566H1.148V3.424h1.126v1.142zM32.676 3.425H31.55V2.283h1.126v1.142zM31.55 3.425h-1.126V2.283h1.126v1.142zM30.424 3.425h-1.126V2.283h1.126v1.142zM21.416 3.425H20.29V2.283h1.126v1.142z"/>
      <path d="M20.29 3.425h-1.126V2.283h1.126v1.142z"/>
      <path d="M19.164 3.425h-1.126V2.283h1.126v1.142zM16.912 3.425h-1.126V2.283h1.126v1.142zM15.786 3.425H14.66V2.283h1.126v1.142zM14.66 3.425h-1.126V2.283h1.126v1.142zM5.652 3.425H4.526V2.283h1.126v1.142zM4.526 3.425H3.4V2.283h1.126v1.142zM3.4 3.425H2.274V2.283H3.4v1.142zM36.054 2.283h-1.126V1.141h1.126v1.142zM31.55 2.283h-1.126V1.141h1.126v1.142zM30.424 2.283h-1.126V1.141h1.126v1.142zM29.298 2.283h-1.126V1.141h1.126v1.142zM21.416 2.283H20.29V1.141h1.126v1.142zM20.29 2.283h-1.126V1.141h1.126v1.142zM15.786 2.283H14.66V1.141h1.126v1.142zM14.66 2.283h-1.126V1.141h1.126v1.142zM6.778 2.283H5.652V1.141h1.126v1.142zM5.652 2.283H4.526V1.141h1.126v1.142zM4.526 2.283H3.4V1.141h1.126v1.142z"/>
      <path d="M36.054 1.142h-1.126V0h1.126v1.142zM34.928 1.142h-1.126V0h1.126v1.142zM30.424 1.142h-1.126V0h1.126v1.142zM29.298 1.142h-1.126V0h1.126v1.142z"/>
      <path d="M28.172 1.142h-1.126V0h1.126v1.142zM21.416 1.142H20.29V0h1.126v1.142zM14.66 1.142h-1.126V0h1.126v1.142zM7.904 1.142H6.778V0h1.126v1.142z"/>
      <path d="M6.778 1.142H5.652V0h1.126v1.142zM5.652 1.142H4.526V0h1.126v1.142zM1.148 1.142H.022V0h1.126v1.142z"/>
    </symbol>
  </defs>
</svg>
